<?xml version="1.0" encoding="UTF-8" standalone="no"?>
<!-- Created with Inkscape (http://www.inkscape.org/) -->

<svg
   width="145mm"
   height="145mm"
   viewBox="0 0 145 145"
   version="1.1"
   id="svg1"
   xml:space="preserve"
   xmlns="http://www.w3.org/2000/svg"
   xmlns:svg="http://www.w3.org/2000/svg"><defs
     id="defs1" /><g
     id="layer1"
     transform="translate(-35.345592,-134.31344)"><g
       id="g2"><path
         id="text3"
         style="font-size:141.111px;line-height:1;font-family:Exmouth;-inkscape-font-specification:Exmouth;text-align:center;text-orientation:upright;text-anchor:middle;stroke-width:0.467202;stroke-linecap:square;stroke-miterlimit:3.9;paint-order:fill markers stroke"
         d="m 97.899929,148.87324 c -8.308369,-0.21461 -16.14144,1.60967 -23.499405,5.4726 -8.768241,4.62938 -13.152258,10.7917 -13.152258,18.4869 0,3.86294 1.823937,7.06684 5.472261,9.61146 3.249768,2.29937 6.882772,3.44906 10.898995,3.44906 1.042377,0 2.038886,-0.092 2.98929,-0.27592 -7.971129,8.70692 -11.956818,16.60119 -11.956818,23.68323 0,3.18845 1.594345,5.77931 4.782796,7.77209 0.280712,0.17466 0.566927,0.33425 0.853985,0.49114 -0.01538,0.13576 -0.03275,0.24995 -0.04759,0.39182 -0.3654,3.49222 1.824282,7.06648 5.472606,9.61111 3.249767,2.29936 6.882771,3.44906 10.898994,3.44906 1.042378,0 2.038888,-0.092 2.989291,-0.27593 -7.971128,8.70692 -11.956818,16.60154 -11.956818,23.68358 0,3.18845 1.594345,5.77896 4.782796,7.77174 2.759237,1.71686 5.824833,2.57541 9.197234,2.57541 5.671762,0 11.926052,-1.99268 18.762822,-5.97824 7.63389,-4.4761 11.45084,-9.33554 11.45084,-14.57809 0,-1.87015 -0.7358,-3.34175 -2.20739,-4.41479 -1.31831,-0.9504 -2.94308,-1.42548 -4.87454,-1.42548 -4.62939,0 -10.20908,2.03866 -16.73927,6.11619 -6.407556,4.01623 -10.807132,8.1091 -13.19847,12.27862 l -0.183834,0.45976 0.459757,0.50597 c 1.502251,-1.59422 3.019835,-3.17301 4.552745,-4.73658 3.740298,-3.61766 7.404072,-6.54564 10.991082,-8.78369 5.0586,-3.15779 9.65733,-4.73658 13.79619,-4.73658 1.59423,0 2.98906,0.35234 4.18473,1.05748 1.41028,0.88909 2.1153,2.08476 2.1153,3.58701 0,4.87465 -3.75541,9.4274 -11.26666,13.65823 -6.71414,3.77096 -12.72327,5.65644 -18.027136,5.65644 -2.483314,0 -4.782684,-0.47508 -6.898098,-1.42549 -2.667263,-1.22633 -4.000897,-2.94308 -4.000897,-5.15047 0,-3.18845 2.130634,-7.95592 6.392122,-14.30216 3.770957,-5.54913 7.220012,-9.71877 10.347149,-12.50867 10.45443,-1.80883 18.79371,-3.92426 25.01732,-6.34625 18.76281,-7.26599 28.14389,-14.36327 28.14389,-21.29201 0,-2.75924 -2.22261,-4.13886 -6.66805,-4.13886 -6.83677,0 -16.14144,3.84772 -27.91418,11.54293 -9.44272,6.1623 -17.62847,12.66173 -24.557219,19.49851 -1.440935,0.30658 -2.866543,0.45976 -4.27682,0.45976 -3.832273,0 -7.281328,-1.02694 -10.347147,-3.08104 -3.495033,-2.33002 -5.406729,-4.71049 -5.406729,-8.38947 0.01468,-0.0962 0.01711,-0.13748 0.0307,-0.2297 2.257314,1.04441 4.698566,1.57379 7.328884,1.57379 5.671765,0 11.926051,-1.99267 18.762831,-5.97823 7.63388,-4.47609 11.45083,-9.33554 11.45083,-14.57809 0,-1.87015 -0.7358,-3.34175 -2.20739,-4.41478 -1.31829,-0.95041 -2.94341,-1.4255 -4.87488,-1.4255 -4.62939,0 -10.209075,2.03867 -16.739268,6.1162 -6.407561,4.01623 -10.550403,7.69833 -12.941742,11.86784 -0.818543,1.45257 -1.392448,3.42485 -1.633594,5.06423 -1.926503,-1.16739 -2.89996,-2.68537 -2.89996,-4.56136 0,-3.18846 2.130979,-7.95593 6.392467,-14.30218 3.770957,-5.54913 7.220011,-9.71842 10.347146,-12.50832 10.454442,-1.80883 18.793371,-3.92425 25.016981,-6.34625 18.76281,-7.26599 28.14424,-14.3636 28.14424,-21.29236 0,-2.75923 -2.22296,-4.13886 -6.66839,-4.13886 -6.83678,0 -16.14145,3.84773 -27.91418,11.54293 -9.442725,6.1623 -17.628481,12.66174 -24.557231,19.49851 -1.440935,0.30659 -2.866545,0.46011 -4.276821,0.46011 -3.832273,0 -7.281328,-1.02728 -10.347147,-3.08138 -3.495033,-2.33002 -5.242554,-5.33442 -5.242554,-9.0134 0,-2.36068 0.521421,-4.5373 1.563799,-6.53009 5.610448,-10.57707 17.582384,-15.86562 35.91598,-15.86562 l 0.413884,-0.55185 -0.551845,-0.64394 z m 36.973791,5.51847 c 3.61767,0 5.4264,0.95052 5.4264,2.85134 0,6.10098 -9.16671,12.87633 -27.5003,20.32627 -6.77546,2.75923 -14.378594,4.64472 -22.809595,5.65644 8.645609,-8.67626 15.420975,-14.85379 20.326275,-18.53278 9.1668,-6.86743 17.35255,-10.30127 24.55722,-10.30127 z m -29.43176,39.9631 c 1.59423,0 2.98907,0.35268 4.18474,1.05782 1.41027,0.88909 2.11564,2.08476 2.11564,3.58701 0,4.87465 -3.75575,9.42741 -11.26701,13.65824 -6.714139,3.77095 -12.723274,5.65643 -18.02714,5.65643 -2.483313,0 -4.782683,-0.47543 -6.898098,-1.42583 -0.02946,-0.0136 -0.05364,-0.0291 -0.08278,-0.0428 0.335099,-2.64795 1.504106,-5.24113 3.273212,-7.54985 4.164302,-4.55138 7.70952,-6.8699 12.905242,-10.20448 5.058601,-3.15779 9.657344,-4.73657 13.796194,-4.73657 z m 42.42502,5.15977 c 3.61766,0 5.42639,0.95052 5.42639,2.85133 0,6.10098 -9.16671,12.87634 -27.5003,20.32628 -6.77546,2.75924 -14.37859,4.64472 -22.80959,5.65644 8.64561,-8.67626 15.42097,-14.85379 20.32628,-18.53277 9.16679,-6.86744 17.35255,-10.30128 24.55722,-10.30128 z" /><circle
         style="fill:none;stroke:#000000;stroke-width:0.739199;stroke-linecap:square;stroke-miterlimit:3.9;stroke-opacity:1;paint-order:fill markers stroke"
         id="path3"
         cx="107.8456"
         cy="206.81345"
         r="69.630402" /><circle
         style="fill:none;stroke:#000000;stroke-width:0.765599;stroke-linecap:square;stroke-miterlimit:3.9;stroke-opacity:1;paint-order:fill markers stroke"
         id="path3-6"
         cx="107.8456"
         cy="206.81345"
         r="72.117203" /></g><rect
       style="fill:none;stroke:none;stroke-width:2.74827;stroke-linecap:square;stroke-miterlimit:3.9;stroke-opacity:1;paint-order:fill markers stroke"
       id="rect1"
       width="153.39317"
       height="153.96671"
       x="31.255819"
       y="130.22864" /></g></svg>
